<svg width="111" height="35" viewBox="0 0 111 35" fill="none" xmlns="http://www.w3.org/2000/svg">
<path fill-rule="evenodd" clip-rule="evenodd" d="M5.01206 0.494141C2.24398 0.494141 0 2.73812 0 5.5062V26.4942C0 26.8883 0.482763 26.9552 0.662007 26.604C6.21858 15.7224 17.4459 8.21857 30.4478 7.9888C30.7589 7.9833 31.0121 7.73146 31.0121 7.42037V5.5062C31.0121 2.73812 28.7681 0.494141 26.0001 0.494141H5.01206ZM31.0121 14.1868C31.0121 13.875 30.7578 13.6219 30.4461 13.6285C18.8693 13.8744 8.99259 21.0293 4.7739 31.1357C4.70058 31.3114 4.82173 31.5063 5.01206 31.5063H26.0001C28.7681 31.5063 31.0121 29.2623 31.0121 26.4942V14.1868Z" fill="#7269F8"/>
<path fill-rule="evenodd" clip-rule="evenodd" d="M44.596 12.6683C45.5122 11.752 46.6179 11.2939 47.9129 11.2939C49.2079 11.2939 50.3135 11.752 51.2298 12.6683C52.146 13.5846 52.6042 14.6902 52.6042 15.9852C52.6042 17.2802 52.146 18.3859 51.2298 19.3021C50.3135 20.2184 49.2079 20.6765 47.9129 20.6765C46.6179 20.6765 45.5122 20.2184 44.596 19.3021C43.6797 18.3859 43.2215 17.2802 43.2215 15.9852C43.2215 14.6902 43.6797 13.5846 44.596 12.6683ZM51.5046 24.6532C51.8834 24.4944 52.2499 24.3111 52.6042 24.1035V25.3679H57.2956V15.9852C57.2956 14.7391 57.0573 13.5418 56.5809 12.3934C56.1044 11.245 55.4264 10.231 54.5467 9.35141C53.6671 8.47179 52.6531 7.79375 51.5046 7.31729C50.3563 6.84082 49.159 6.60259 47.9129 6.60259C46.6667 6.60259 45.4695 6.84082 44.3211 7.31729C43.1727 7.79375 42.1587 8.47179 41.2791 9.35141C40.3994 10.231 39.7214 11.245 39.2449 12.3934C38.7685 13.5418 38.5302 14.7391 38.5302 15.9852C38.5302 17.2314 38.7685 18.4286 39.2449 19.577C39.7214 20.7254 40.3994 21.7394 41.2791 22.6191C42.1587 23.4987 43.1727 24.1768 44.3211 24.6532C45.4695 25.1297 46.6667 25.3679 47.9129 25.3679C49.159 25.3679 50.3563 25.1297 51.5046 24.6532ZM59.293 15.9852V6.60259H63.9843V15.9852C63.9843 17.2802 64.4424 18.3859 65.3587 19.3021C66.275 20.2184 67.3806 20.6765 68.6758 20.6765C69.9707 20.6765 71.0764 20.2184 71.9926 19.3021C72.9089 18.3859 73.367 17.2802 73.367 15.9852V6.60259H78.0583V25.3679C78.0583 26.614 77.8201 27.8113 77.3436 28.9597C76.8672 30.1081 76.1891 31.1221 75.3095 32.0017C74.4299 32.8813 73.4159 33.5593 72.2675 34.0358C71.1191 34.5123 69.9219 34.7505 68.6758 34.7505V30.0592C69.9707 30.0592 71.0764 29.6011 71.9926 28.6848C72.9089 27.7685 73.367 26.6629 73.367 25.3679V24.1035C73.0127 24.3111 72.6462 24.4944 72.2675 24.6532C71.1191 25.1297 69.9219 25.3679 68.6758 25.3679C67.4295 25.3679 66.2322 25.1297 65.0838 24.6532C63.9354 24.1768 62.9214 23.4987 62.0418 22.6191C61.1622 21.7394 60.4842 20.7254 60.0077 19.577C59.5312 18.4286 59.293 17.2314 59.293 15.9852ZM85.8464 24.6532C86.9948 25.1297 88.1921 25.3679 89.4382 25.3679C90.6843 25.3679 91.8816 25.1297 93.03 24.6532C94.1784 24.1768 95.1924 23.4987 96.072 22.6191C96.9516 21.7394 97.6297 20.7254 98.1061 19.577C98.5826 18.4286 98.8208 17.2314 98.8208 15.9852C98.8208 14.7391 98.5826 13.5418 98.1061 12.3934C97.6297 11.245 96.9516 10.231 96.072 9.35141C95.1924 8.47179 94.1784 7.79375 93.03 7.31729C91.8816 6.84082 90.6843 6.60259 89.4382 6.60259C88.1921 6.60259 86.9948 6.84082 85.8464 7.31729C84.6981 7.79375 83.6841 8.47179 82.8044 9.35141C81.9248 10.231 81.2468 11.245 80.7703 12.3934C80.2939 13.5418 80.0556 14.7391 80.0556 15.9852C80.0556 17.2314 80.2939 18.4286 80.7703 19.577C81.2468 20.7254 81.9248 21.7394 82.8044 22.6191C83.6841 23.4987 84.6981 24.1768 85.8464 24.6532ZM92.7551 19.3021C91.8388 20.2184 90.7332 20.6765 89.4382 20.6765C88.1432 20.6765 87.0376 20.2184 86.1213 19.3021C85.2051 18.3859 84.7469 17.2802 84.7469 15.9852C84.7469 14.6902 85.2051 13.5846 86.1213 12.6683C87.0376 11.752 88.1432 11.2939 89.4382 11.2939C90.7332 11.2939 91.8388 11.752 92.7551 12.6683C93.6714 13.5846 94.1295 14.6902 94.1295 15.9852C94.1295 17.2802 93.6714 18.3859 92.7551 19.3021ZM100.635 25.3679H105.326V15.9852C105.326 14.6902 105.785 13.5846 106.701 12.6683C107.617 11.752 108.723 11.2939 110.018 11.2939V6.60259C108.772 6.60259 107.574 6.84082 106.426 7.31729C105.278 7.79375 104.264 8.47179 103.384 9.35141C102.504 10.231 101.826 11.245 101.35 12.3934C100.873 13.5418 100.635 14.7391 100.635 15.9852V25.3679Z" fill="#334155"/>
</svg>
